# xmcd
#
# Track frame offsets:
#	150
#	13416
#	25673
#	36762
#	51362
#	63358
#	76753
#	90165
#	104387
#	117066
#	130343
#	140240
#	153564
#	167334
#	180790
#	195004
#	206188
#	216476
#	230774
#	244485
#	256642
#	271304
#	282714
#	296003
#	308446
#	319635
#	330341
#	345888
#	357237
#	370281
#
# Disc length: 5108 seconds
# Revision: 3
# Processed by: cddbd v1.5.2PL0 Copyright (c) Steve Scherf et al.
# Submitted via: dBpowerAMP V12.0
#
DISCID=b113f21e
DTITLE=Various Artist - The Sun Blues Box 2 - Everybody's In The Mood
DYEAR=2013
DGENRE=Blues
TTITLE0=Howlin' Wolf - Moanin' at Midnight
TTITLE1=Howlin' Wolf - How Many More Years
TTITLE2=Howlin' Wolf - Mr. Highway Man
TTITLE3=Howlin' Wolf - My Troubles and Me
TTITLE4=Howlin' Wolf - Getting Old and Grey
TTITLE5=Howlin' Wolf - My Baby Walked Off
TTITLE6=Howlin' Wolf - Everybody's in the Mood
TTITLE7=Howlin' Wolf - Decoration Day Blues
TTITLE8=Howlin' Wolf - Bluebird Blues
TTITLE9=Howlin' Wolf - Well That's Alright
TTITLE10=Howlin' Wolf - Come Back Home
TTITLE11=Walter Horton - Little Walter's Instrumental
TTITLE12=Walter Horton - In the Mood
TTITLE13=Walter Horton - We All Gotta Go Sometime
TTITLE14=Walter Horton - West Winds Are Blowing
TTITLE15=Walter Horton - Little Walter's Boogie
TTITLE16=Little Walker - Off the Wall
TTITLE17=Jimmy DeBerry - Party Line Blues
TTITLE18=Willie Nix - Midnight Showers of Rain
TTITLE19=Willie Nix - Prison Bound Blues
TTITLE20=Willie Nix - Ridin' in the Moonlight
TTITLE21=Willie Nix - Take a Little Walk with Me
TTITLE22=Henry with Doctor Ross Hill - That Ain't Right
TTITLE23=Doctor Ross - Deep Down in the Ground
TTITLE24=James Banister - Ain't Gonna Tell You No Lie
TTITLE25=Dennis Binder - Love You, Love You Baby
TTITLE26=Elven Parr and His In The Groove Boys - Baby Child
TTITLE27=Elven Parr and His In The Groove Boys - I'm a Good Man
TTITLE28=Elven Parr and His In The Groove Boys - In the Groove Rumba
TTITLE29=Elven Parr and His In The Groove Boys - Skin and Bones Woman
EXTD=
EXTT0=
EXTT1=
EXTT2=
EXTT3=
EXTT4=
EXTT5=
EXTT6=
EXTT7=
EXTT8=
EXTT9=
EXTT10=
EXTT11=
EXTT12=
EXTT13=
EXTT14=
EXTT15=
EXTT16=
EXTT17=
EXTT18=
EXTT19=
EXTT20=
EXTT21=
EXTT22=
EXTT23=
EXTT24=
EXTT25=
EXTT26=
EXTT27=
EXTT28=
EXTT29=
PLAYORDER=
